# xmcd
#
# Track frame offsets: 
#        150
#        14050
#        27925
#        40875
#        53875
#        66787
#        80200
#        93600
#        106425
#        118500
#        129775
#        144325
#        158250
#        171500
#        184425
#        199337
#        212812
#        226175
#        241850
#        254775
#        266775
#        280400
#
# Disc length: 3917 seconds
#
# Revision: 0
# Processed by: cddbd v1.5.2PL0 Copyright (c) Steve Scherf et al.
# Submitted via: ExactAudioCopy v0.99pb4
#
DISCID=4a0f4b16
DTITLE=Various Artist - The Spivey Sisters (Sweet Pease and The Za Zu Girl): Co
DTITLE=mplete Recordings 1929-1937
DYEAR=1994
DGENRE=
TTITLE0=Sweet Peas - Day-Breaking Blues
TTITLE1=Sweet Peas - Heart-Breakin' Blues [alt. take]
TTITLE2=Sweet Peas - Heart-Breakin' Blues
TTITLE3=Sweet Peas - Leaving You, Baby
TTITLE4=Sweet Peas - Leaving You, Baby [alt. take]
TTITLE5=Sweet Peas - Longing for Home
TTITLE6=Sweet Pease Spivey and Dot Scott's Rhythm Dukes - Grievin' Me
TTITLE7=Sweet Pease Spivey and Dot Scott's Rhythm Dukes - You Weren't 
TTITLE7=True (But You're Still in My Heart)
TTITLE8=Sweet Pease Spivey - Double Dozens (You Dirty No-Gooder)
TTITLE9=Sweet Pease Spivey - 410 Blues
TTITLE10=Hannah May and the State Street Four - Just a Rank Stud
TTITLE11=Hannah May and the State Street Four - Kansas City Hill
TTITLE12=Sweet Peas - I Got a Man in the 'Bama Mines
TTITLE13=Sweet Peas - Cold in Hand
TTITLE14=Sweet Peas - Ramblin' Blues
TTITLE15=Sweet Peas - Disgusted Blues
TTITLE16=Sweet Peas - Blood Drippin' Blues
TTITLE17=Sweet Peas - Road of Stone
TTITLE18=The Za Zu Girl - My Righteous Man
TTITLE19=The Za Zu Girl - Ocean Wide
TTITLE20=The Za Zu Girl - My Tweet Twaat Twaat
TTITLE21=The Za Zu Girl - He Left Me
EXTD=
EXTT0=
EXTT1=
EXTT2=
EXTT3=
EXTT4=
EXTT5=
EXTT6=
EXTT7=
EXTT8=
EXTT9=
EXTT10=
EXTT11=
EXTT12=
EXTT13=
EXTT14=
EXTT15=
EXTT16=
EXTT17=
EXTT18=
EXTT19=
EXTT20=
EXTT21=
PLAYORDER=
